<svg width="150" height="150" viewBox="0 0 150 150" fill="none" xmlns="http://www.w3.org/2000/svg">
<line x1="28.7802" y1="15.3745" x2="121.78" y2="131.374" stroke="#3F413C" stroke-width="2"/>
<circle cx="75" cy="75" r="74" stroke="#3F413C" stroke-width="2"/>
<path d="M108.695 97.7203C108.695 93.9703 105.644 90.9117 101.886 90.9117C98.1246 90.9117 95.0777 93.9625 95.0777 97.7203C95.0777 101.47 98.1285 104.529 101.886 104.529C105.644 104.533 108.695 101.47 108.695 97.7203ZM96.9569 97.7203C96.9569 95.0015 99.1678 92.7906 101.887 92.7906C104.605 92.7906 106.816 95.0015 106.816 97.7203C106.816 100.439 104.605 102.65 101.887 102.65C99.1678 102.65 96.9569 100.431 96.9569 97.7203ZM101.887 104.99C94.6561 104.99 88.7776 110.869 88.7776 118.099V119.177C88.7776 120.728 90.0393 121.997 91.5979 121.997H112.176C113.727 121.997 114.996 120.735 114.996 119.177V118.103C114.996 110.872 109.117 104.99 101.887 104.99ZM113.117 119.181C113.117 119.7 112.695 120.122 112.175 120.122H109.976V116.013C109.976 115.493 109.554 115.071 109.035 115.071C108.515 115.071 108.093 115.493 108.093 116.013V120.122H95.6672V116.013C95.6672 115.493 95.2453 115.071 94.7258 115.071C94.2062 115.071 93.7843 115.493 93.7843 116.013V120.122H91.5851C91.0656 120.122 90.6437 119.7 90.6437 119.181V118.103C90.6437 111.911 95.6828 106.873 101.874 106.873C108.065 106.873 113.104 111.912 113.104 118.103V119.181H113.117ZM79.5266 97.7198C79.5266 93.9698 76.4758 90.9112 72.718 90.9112C68.968 90.9112 65.9094 93.962 65.9094 97.7198C65.9094 101.47 68.9602 104.528 72.718 104.528C76.4641 104.521 79.5266 101.47 79.5266 97.7198ZM67.7846 97.7198C67.7846 95.001 69.9955 92.7901 72.7143 92.7901C75.4331 92.7901 77.644 95.001 77.644 97.7198C77.644 100.439 75.4331 102.649 72.7143 102.649C69.9955 102.649 67.7846 100.431 67.7846 97.7198ZM72.7143 104.989C65.4838 104.989 59.6053 110.868 59.6053 118.098V119.176C59.6053 120.727 60.867 121.997 62.4256 121.997H83.0036C84.5544 121.997 85.8239 120.735 85.8239 119.176V118.102C85.8239 110.872 79.9444 104.989 72.7143 104.989ZM83.9443 119.18C83.9443 119.7 83.5224 120.122 83.0029 120.122H80.8037V116.012C80.8037 115.493 80.3818 115.071 79.8623 115.071C79.3427 115.071 78.9209 115.493 78.9209 116.012V120.122H66.4949V116.012C66.4949 115.493 66.073 115.071 65.5535 115.071C65.0339 115.071 64.612 115.493 64.612 116.012V120.122H62.4128C61.8933 120.122 61.4714 119.7 61.4714 119.18L61.4753 118.102C61.4753 111.911 66.5144 106.872 72.7053 106.872C78.8967 106.872 83.9353 111.911 83.9353 118.102V119.18H83.9443ZM112.174 30.0003H54.8543C53.3035 30.0003 52.034 31.262 52.034 32.8206V36.3401C52.034 37.8909 53.2957 39.1604 54.8543 39.1604H55.4441V59.8714L53.3543 58.6722C51.7137 57.7308 50.0731 57.2933 48.1941 57.2933L34.9361 57.2894C31.3775 57.2894 28.358 59.348 27.065 62.6683L23.315 72.3011C22.3853 74.6995 23.5846 77.4222 25.9752 78.3519L31.0064 80.3324V112.613C31.0064 115.723 33.5376 118.242 36.6353 118.242C38.5962 118.242 40.315 117.242 41.3267 115.723C42.3384 117.242 44.065 118.242 46.0181 118.242C49.1275 118.242 51.647 115.711 51.647 112.613L51.6431 68.4684L55.2525 70.5582C55.3111 70.5894 55.3736 70.6167 55.4322 70.648V78.5191C55.4322 80.5894 57.1119 82.2808 59.1939 82.2808H107.815C109.885 82.2808 111.577 80.6011 111.577 78.5191L111.573 39.1601H112.163C113.713 39.1601 114.983 37.8984 114.983 36.3398V32.8203C114.995 31.2617 113.733 30.0003 112.174 30.0003ZM51.1863 66.0313C50.8972 65.8594 50.5379 65.8594 50.2449 66.0313C49.9558 66.2031 49.7761 66.5117 49.7761 66.8399V112.602C49.7761 114.672 48.0964 116.364 46.0144 116.364C43.9363 116.364 42.2527 114.684 42.2527 112.602L42.2566 90.0588C42.2566 89.5393 41.8348 89.1174 41.3152 89.1174C40.7957 89.1174 40.3738 89.5393 40.3738 90.0588V112.618C40.3738 114.688 38.6941 116.38 36.6121 116.38C34.534 116.38 32.8504 114.7 32.8504 112.618L32.8543 81.0709L36.1629 82.3717C38.5731 83.3131 41.2918 82.1217 42.2332 79.7115C43.1746 77.3013 41.9832 74.5826 39.573 73.6412L33.7019 71.3326L35.8425 65.8443C36.0339 65.3638 35.7917 64.8131 35.3113 64.6255C34.8308 64.434 34.2801 64.6762 34.0925 65.1567L31.612 71.5161C31.4206 71.9966 31.6628 72.5356 32.1432 72.727L38.8815 75.3754C40.3229 75.934 41.0417 77.5746 40.4713 79.016C39.9127 80.4574 38.2721 81.1762 36.8307 80.6176L26.6547 76.602C25.225 76.0434 24.5063 74.4106 25.0649 72.9731L28.8149 63.3325C29.8266 60.7544 32.1665 59.1411 34.936 59.1411H48.198C49.7683 59.1411 51.0691 59.4927 52.4168 60.27L57.116 62.9888C57.4051 63.1607 57.7645 63.1607 58.0574 62.9888L66.5965 58.0591C67.245 57.688 67.9949 57.5904 68.7254 57.7779C69.4442 57.9771 70.0457 58.438 70.4246 59.0865C70.7957 59.7349 70.8934 60.4849 70.7059 61.2154C70.5067 61.9341 70.0457 62.5357 69.3973 62.9146L59.0383 68.8951C58.1672 69.4146 57.0774 69.4263 56.2102 68.9146L51.1863 66.0313ZM72.0533 58.1719C71.772 57.6836 71.4049 57.2617 70.983 56.9102C72.3033 51.0899 77.483 46.9102 83.514 46.9102C90.6038 46.9102 96.385 52.6797 96.385 59.7812C96.385 66.8827 90.6155 72.6522 83.514 72.6522C77.9554 72.6522 73.014 69.0311 71.295 63.8006C71.8653 63.2303 72.295 62.5311 72.5138 61.7303C72.8458 60.5115 72.6744 59.25 72.0533 58.1719ZM109.705 78.5199C109.705 79.559 108.865 80.3988 107.826 80.3988H59.2054C58.1663 80.3988 57.3265 79.5589 57.3265 78.5199V71.1605C58.2484 71.2112 59.1781 71.012 59.9867 70.5198L69.6976 64.9104C71.8265 70.6213 77.3382 74.512 83.5176 74.512C91.6465 74.512 98.2556 67.9026 98.2556 59.774C98.2556 51.6451 91.6462 45.036 83.5176 45.036C76.7793 45.036 70.9586 49.5868 69.2676 56.005C69.2481 56.005 69.2363 55.9933 69.2168 55.9855C68.0059 55.6574 66.748 55.8254 65.666 56.4465L57.5957 61.1027L57.3262 60.9425L57.3223 39.1615H109.701L109.705 78.5199ZM113.115 36.3399C113.115 36.8594 112.694 37.2813 112.174 37.2813H54.8541C54.3346 37.2813 53.9127 36.8594 53.9127 36.3399L53.9166 32.8204C53.9166 32.3008 54.3385 31.879 54.858 31.879H112.178C112.698 31.879 113.119 32.3008 113.119 32.8204L113.115 36.3399ZM41.8735 56.6019C46.3735 56.6019 50.0454 52.9417 50.0454 48.43C50.0454 43.9183 46.3852 40.2581 41.8735 40.2581C37.3618 40.2581 33.7016 43.9183 33.7016 48.43C33.7055 52.9417 37.3735 56.6019 41.8735 56.6019ZM41.8735 42.1409C45.3423 42.1409 48.1626 44.9612 48.1626 48.43C48.1626 51.8988 45.3423 54.7191 41.8735 54.7191C38.4047 54.7191 35.5844 51.8988 35.5844 48.43C35.5844 44.9612 38.4047 42.1409 41.8735 42.1409ZM77.6855 63.6999H79.5957V65.6101C79.5957 67.0007 80.7246 68.1218 82.1074 68.1218H84.916C86.3066 68.1218 87.4277 66.9929 87.4277 65.6101L87.4238 63.6999H89.334C90.7246 63.6999 91.8457 62.571 91.8457 61.1882V58.3796C91.8457 56.989 90.7168 55.8679 89.334 55.8679H87.4238V53.9577C87.4238 52.5671 86.2949 51.446 84.9121 51.446H82.1035C80.7129 51.446 79.5918 52.5749 79.5918 53.9577V55.8679H77.6816C76.291 55.8679 75.1699 56.9968 75.1699 58.3796V61.1882C75.1738 62.571 76.3027 63.6999 77.6855 63.6999ZM77.0527 58.3718C77.0527 58.0202 77.3417 57.7311 77.6933 57.7311H80.5449C81.0644 57.7311 81.4863 57.3093 81.4863 56.7897V53.9381C81.4863 53.5866 81.7754 53.2975 82.1269 53.2975H84.9355C85.2871 53.2975 85.5762 53.5866 85.5762 53.9381V56.7897C85.5762 57.3093 85.998 57.7311 86.5176 57.7311H89.3692C89.7207 57.7311 90.0098 58.0202 90.0098 58.3718V61.1804C90.0098 61.5319 89.7207 61.821 89.3692 61.821H86.4942C85.9746 61.821 85.5528 62.2429 85.5528 62.7624V65.614C85.5528 65.9655 85.2637 66.2546 84.9121 66.2546H82.1035C81.752 66.2546 81.4629 65.9655 81.4629 65.614V62.7624C81.4629 62.2429 81.041 61.821 80.5215 61.821H77.6699C77.3183 61.821 77.0293 61.5319 77.0293 61.1804L77.0332 58.3718H77.0527Z" fill="#782835"/>
</svg>
