<svg width="150" height="150" viewBox="0 0 150 150" fill="none" xmlns="http://www.w3.org/2000/svg">
<circle cx="75" cy="75" r="74" stroke="#3F413C" stroke-width="2"/>
<path d="M65.939 57.291C67.692 57.291 69.118 58.715 69.118 60.465V70.723H81.289V53.054C81.289 49.701 78.559 46.975 75.203 46.975H42.171V38H30V66.61H42.171V57.291H65.939ZM75.203 48.852C77.524 48.852 79.412 50.737 79.412 53.054V68.846H70.995V60.465C70.995 57.68 68.727 55.414 65.939 55.414H42.171V48.851L75.203 48.852ZM40.294 64.734H31.876V39.877H40.294V64.734Z" fill="#782835"/>
<path d="M116.887 77.7939H97.8478C97.6958 77.7939 97.5508 77.8039 97.4058 77.8259C69.8518 81.8129 68.9738 83.5699 68.6858 84.1469C68.2398 85.0419 68.0738 86.1659 68.1918 87.4889C68.3328 89.0649 69.6928 90.2999 71.2898 90.2999L87.6178 89.6739C88.2728 89.6739 88.6498 90.1179 88.7828 90.5349C88.8478 90.7359 89.0058 91.4309 88.3238 91.9199L81.6808 96.6699C81.3188 96.9289 80.8298 96.972 80.4298 96.7789C64.1258 88.917 54.5378 84.2819 53.4318 83.7269C53.1568 83.5889 52.8558 83.5199 52.5398 83.5199C50.7928 83.5199 49.0648 85.6829 48.6058 87.6249C48.1348 89.6209 48.8978 91.3359 50.6488 92.2129C53.6798 93.7309 76.0668 105.819 85.5518 110.947C86.7398 111.589 88.0788 111.928 89.4258 111.928C91.6738 111.928 93.8468 110.986 95.3848 109.343L105.502 98.5369C105.734 98.2889 106.064 98.1459 106.404 98.1459H116.885C118.602 98.1459 119.998 96.7489 119.998 95.0309V80.9099C120 79.1919 118.604 77.7939 116.887 77.7939ZM118.123 95.0329C118.123 95.7169 117.568 96.2719 116.887 96.2719H106.405C105.548 96.2719 104.719 96.6299 104.134 97.2549L94.0168 108.062C92.8308 109.328 91.1588 110.053 89.4268 110.053C88.3908 110.053 87.3598 109.792 86.4458 109.297C76.9528 104.165 54.5438 92.0659 51.4888 90.5349C50.5138 90.0479 50.1588 89.2139 50.4318 88.0569C50.7938 86.5259 52.0228 85.4049 52.5838 85.4049C52.5858 85.4049 52.5878 85.4049 52.5898 85.4049C54.0178 86.1209 68.0728 92.9039 79.6118 98.4679C80.6208 98.9549 81.8628 98.8459 82.7718 98.1959L89.4148 93.4459C90.5368 92.643 90.9898 91.2749 90.5678 89.9609C90.1458 88.6469 88.9868 87.7969 87.6158 87.7969L71.2898 88.4229C70.6558 88.4229 70.1158 87.9399 70.0608 87.3219C69.9788 86.4119 70.0698 85.6379 70.3218 85.0749C71.8618 83.9109 85.1758 81.4919 97.6788 79.6819C97.7358 79.6729 97.7908 79.6699 97.8478 79.6699H116.887C117.569 79.6699 118.123 80.2269 118.123 80.9089V95.0329Z" fill="#782835"/>
<path d="M97.5128 71.876C97.2888 70.273 95.5328 69.11 93.3378 69.11H90.0848C90.1608 68.322 89.9868 67.532 89.5638 66.847C89.0518 66.018 87.6948 64.627 84.3628 64.627C83.8438 64.627 83.4248 65.047 83.4248 65.565C83.4248 66.083 83.8448 66.503 84.3628 66.503C86.1578 66.503 87.4378 66.975 87.9668 67.832C88.2918 68.359 88.3088 69.03 88.0098 69.627L87.3308 70.985H93.3368C94.6678 70.985 95.5758 71.581 95.6528 72.134C95.7408 72.763 94.7528 73.747 92.3868 74.461C92.3018 74.486 92.2298 74.508 92.1688 74.525L92.6958 76.326C92.7748 76.304 92.8528 76.281 92.9298 76.258C95.3788 75.557 99.1248 74.973 100.231 75.794C100.377 75.901 100.473 76.033 100.473 76.32C100.473 76.838 100.893 77.258 101.411 77.258C101.929 77.258 102.349 76.837 102.349 76.32C102.349 75.477 102.003 74.774 101.351 74.288C100.374 73.561 98.7698 73.435 97.1628 73.556C97.5568 72.871 97.5648 72.254 97.5128 71.876Z" fill="#782835"/>
<path d="M88.8957 50.3717C86.8047 50.7717 85.2188 52.6057 85.2188 54.8097C85.2188 57.3037 87.2497 59.3327 89.7467 59.3327C91.9517 59.3327 93.7888 57.7487 94.1888 55.6607C96.2798 55.2617 97.8657 53.4267 97.8657 51.2227C97.8657 48.7287 95.8337 46.6997 93.3377 46.6997C91.1327 46.6997 89.2957 48.2837 88.8957 50.3717ZM89.7467 57.4557C88.2847 57.4557 87.0957 56.2677 87.0957 54.8097C87.0957 53.3517 88.2847 52.1637 89.7467 52.1637C91.2098 52.1637 92.3988 53.3517 92.3988 54.8097C92.3988 56.2677 91.2098 57.4557 89.7467 57.4557ZM93.3377 48.5767C94.7997 48.5767 95.9887 49.7647 95.9887 51.2227C95.9887 52.4047 95.2048 53.3957 94.1328 53.7347C93.7328 52.1057 92.4517 50.8287 90.8207 50.4277C91.1617 49.3597 92.1537 48.5767 93.3377 48.5767Z" fill="#782835"/>
<path d="M86.1569 48.5758C88.6539 48.5758 90.6849 46.5468 90.6849 44.0528C90.6849 41.5588 88.6539 39.5298 86.1569 39.5298C83.6609 39.5298 81.6299 41.5588 81.6299 44.0528C81.6299 46.5468 83.6609 48.5758 86.1569 48.5758ZM86.1569 41.4058C87.6189 41.4058 88.8079 42.5938 88.8079 44.0518C88.8079 45.5098 87.6189 46.6978 86.1569 46.6978C84.6949 46.6978 83.5059 45.5098 83.5059 44.0518C83.5059 42.5938 84.6949 41.4058 86.1569 41.4058Z" fill="#782835"/>
<path d="M49.6461 80.5836C49.6461 80.2966 49.7431 80.1656 49.8871 80.0576C50.9931 79.2376 54.7491 79.8236 57.1991 80.5266C57.2731 80.5476 57.3471 80.5706 57.4231 80.5916L57.9501 78.7896C57.8901 78.7716 57.8171 78.7506 57.7321 78.7266C55.3671 78.0126 54.3791 77.0276 54.4671 76.3976C54.5451 75.8446 55.4521 75.2486 56.7841 75.2486H62.7891L62.1101 73.8916C61.8121 73.2936 61.8271 72.6226 62.1531 72.0966C62.6821 71.2396 63.9631 70.7676 65.7571 70.7676C66.2751 70.7676 66.6951 70.3476 66.6951 69.8296C66.6951 69.3116 66.2751 68.8916 65.7571 68.8916C62.4241 68.8916 61.0681 70.2826 60.5561 71.1116C60.1331 71.7956 59.9591 72.5866 60.0361 73.3736H56.7831C54.5881 73.3736 52.8321 74.5376 52.6081 76.1406C52.5551 76.5186 52.5651 77.1346 52.9531 77.8236C51.3471 77.7046 49.7421 77.8296 48.7661 78.5556C48.1131 79.0416 47.7681 79.7436 47.7681 80.5866C47.7681 81.1056 48.1881 81.5246 48.7061 81.5246C49.2241 81.5246 49.6461 81.1026 49.6461 80.5836Z" fill="#782835"/>
<line x1="35.7802" y1="15.3745" x2="128.78" y2="131.374" stroke="#3F413C" stroke-width="2"/>
</svg>
