<svg width="35" height="63" viewBox="0 0 35 63" fill="none" xmlns="http://www.w3.org/2000/svg">
<path d="M11.1547 16.4253C13.4197 10.8553 15.5652 5.96838 17.0051 3.13281L18.4698 3.1904C18.4817 3.1429 18.4935 3.09592 18.505 3.04945C19.9831 5.85665 22.1078 10.7794 24.3236 16.4146C26.6707 22.3838 29.0996 29.0998 30.94 34.8388C31.8604 37.7091 32.6304 40.3248 33.1691 42.4752C33.7156 44.6567 34 46.2686 34 47.1774C34 54.8602 26.7531 61.3249 17.5 61.3249C8.24691 61.3249 1 54.8602 1 47.1774C1 46.2769 1.3006 44.6716 1.88016 42.4888C2.45088 40.3394 3.26546 37.7243 4.23606 34.8537C6.17667 29.1144 8.72621 22.3973 11.1547 16.4253Z" fill="#B94A75" stroke="#333531" stroke-width="2"/>
<path d="M31.5 38.4592V38.7315L31.638 38.9662C33.7966 42.6361 32.6822 47.9083 29.6357 52.4638C26.5952 57.0101 21.9606 60.3319 17.8 60.3319C8.93351 60.3319 2 54.1385 2 46.7902C2 44.9219 2.53891 41.9063 3.50199 38.6131C4.4606 35.3352 5.81179 31.8771 7.38101 29.1276C8.16575 27.7526 8.98944 26.5825 9.8249 25.7048C10.6675 24.8196 11.4658 24.2911 12.1911 24.0922C12.8701 23.9059 13.5614 23.9852 14.3164 24.4837C15.1094 25.0072 15.9967 26.0136 16.9188 27.7321C19.5338 32.6053 23.5878 33.4953 26.6627 34.1704L26.7401 34.1874C28.3379 34.5383 29.494 34.8133 30.2933 35.3921C30.9753 35.8861 31.5 36.6893 31.5 38.4592Z" fill="#782835" stroke="#333531" stroke-width="2"/>
<path d="M32.6577 41.9852C34.2702 46.5001 33.0786 51.0777 30.0843 54.5679C27.0834 58.0658 22.2872 60.4394 16.7995 60.4394C12.4621 60.4394 7.82333 57.6376 4.75502 53.8065C1.82325 50.1458 0.592729 45.9116 2.0217 42.649L2.5772 42.649L5.82345 42.649L16.7994 42.6491C26.0938 42.649 30.5636 42.2771 32.6508 41.9658C32.6531 41.9723 32.6554 41.9787 32.6577 41.9852Z" fill="#333531" stroke="#333531" stroke-width="2"/>
</svg>
