<svg width="116" height="131" viewBox="0 0 116 131" fill="none" xmlns="http://www.w3.org/2000/svg">
<path d="M63.3062 46.8919L63.3064 46.8917C69.553 43.0764 77.228 42.178 84.0835 44.8334L84.0842 44.8337C87.7842 46.2702 91.9675 46.7113 96.3184 45.88C104.965 44.2085 111.977 37.1657 113.717 28.3636L113.717 28.3635C116.851 12.5184 103.598 -1.26636 88.1528 1.37526L88.1526 1.37531C79.9277 2.77994 73.0792 9.08368 70.6566 17.2445L70.6558 17.2471C70.2717 18.5286 70.0249 19.7818 69.8701 21.0256C68.9589 28.4353 64.3145 34.8037 58.0927 38.604L58.0917 38.6045L51.2726 42.7594L51.2725 42.7595C45.1176 46.5086 37.7137 46.7441 31.0702 44.2488C28.6846 43.3565 26.1011 42.8564 23.4113 42.8564C9.6886 42.8564 -1.22002 55.6521 1.65099 70.1739C3.39109 78.976 10.4025 86.0188 19.0496 87.6903L19.051 87.6906C23.3979 88.5372 27.5809 88.0816 31.2838 86.644L31.2845 86.6437C38.1405 83.9881 45.7989 84.8871 52.0605 88.7014L52.061 88.7017L63.1895 95.4896C67.2583 97.9655 69.7169 102.432 69.7169 107.222V107.287C69.7169 121.263 82.2622 132.284 96.4411 129.453L96.4416 129.453C105.072 127.735 112.038 120.645 113.748 111.841C116.542 97.3666 105.664 84.6339 91.9728 84.6339C89.2832 84.6339 86.6999 85.134 84.3143 86.0262C84.3142 86.0263 84.314 86.0263 84.3138 86.0264L83.9635 85.0898C77.5625 87.4944 70.5021 87.249 64.6479 83.683L63.3062 46.8919ZM63.3062 46.8919L52.1447 53.713C48.0978 56.1862 45.6184 60.6333 45.635 65.4129L63.3062 46.8919ZM96.6369 130.433C81.8084 133.394 68.7169 121.862 68.7169 107.287V107.222C68.7169 102.772 66.4331 98.634 62.6697 96.3439L96.6369 130.433ZM96.6369 130.433C105.675 128.634 112.945 121.224 114.73 112.031L96.6369 130.433Z" fill="#782835" stroke="#3E403B" stroke-width="2"/>
</svg>
