<svg width="118" height="163" viewBox="0 0 118 163" fill="none" xmlns="http://www.w3.org/2000/svg">
<path d="M109.856 1.33098C113.259 1.3898 116.015 4.1546 116.129 7.60057L116.129 7.94476C116.168 24.5982 116.181 41.2466 116.155 57.8941C116.024 60.0166 114.87 61.9297 113.083 63.0249L113.078 63.028C112.377 63.4635 111.579 63.7302 110.757 63.8136L110.741 63.8152C100.153 63.8294 89.5595 63.8211 78.9647 63.8127C65.3757 63.8021 51.7845 63.7914 38.1992 63.8282C34.4127 63.8258 30.6274 63.8269 26.8429 63.828C20.2518 63.8299 13.6632 63.8317 7.07547 63.8153C4.12383 63.2274 1.9259 60.6811 1.76572 57.6094C1.72829 46.7785 1.74456 35.951 1.76082 25.1203C1.76976 19.1715 1.7787 13.2217 1.77874 7.26993C2.04037 4.27774 4.2631 1.86164 7.15779 1.37024C41.3893 1.33752 75.6192 1.32444 109.856 1.33098Z" fill="#782835" stroke="#3E403B" stroke-width="2"/>
<path d="M62.0824 84.8599C60.9275 85.7973 59.8242 86.8012 58.7836 87.8662C58.0619 87.1094 57.3202 86.372 56.5905 85.6465C56.3096 85.3672 56.0304 85.0896 55.7548 84.8133C55.7172 81.11 55.719 77.4057 55.7207 73.6966C55.7213 72.551 55.7218 71.4049 55.7212 70.2582C56.6621 70.2608 57.5909 70.2584 58.5169 70.2561C59.7146 70.253 60.9078 70.25 62.1167 70.2577C62.1136 71.7139 62.1113 73.1697 62.1089 74.6254C62.1034 78.0362 62.0979 81.4462 62.0824 84.8599Z" fill="#782835" stroke="#3E403B" stroke-width="2"/>
<path d="M107.301 159.989C108.14 159.87 108.968 159.692 109.781 159.456C108.441 159.111 107.065 158.925 105.68 158.896L105.642 158.896L105.605 158.892C100.87 158.437 96.1099 158.202 91.3335 157.985C90.184 157.991 89.0399 157.923 87.932 157.858C87.8327 157.852 87.7337 157.846 87.635 157.84C86.4141 157.769 85.2339 157.708 84.0577 157.742L83.9839 157.745L83.9107 157.736C83.0918 157.639 82.2596 157.635 81.3628 157.634L81.278 157.634C80.4377 157.633 79.5384 157.632 78.633 157.539C78.1195 157.53 77.5897 157.53 77.0504 157.53C75.7912 157.53 74.4799 157.53 73.202 157.418L73.181 157.416L73.16 157.413C73.0043 157.393 72.8628 157.403 72.6399 157.418C72.5215 157.426 72.3801 157.436 72.2014 157.444C71.8009 157.461 71.1518 157.464 70.5717 157.094L70.1162 156.802L70.1104 156.262C70.0618 151.767 70.0699 147.273 70.0788 142.787L70.0792 142.593C70.0877 138.334 70.0961 134.081 70.057 129.83C69.0966 129.078 68.1945 128.245 67.3698 127.336L67.3562 127.321L67.3433 127.305C66.3358 126.1 65.752 124.607 65.6558 123.059C64.6042 123.023 63.5668 122.762 62.615 122.288L62.6041 122.283L62.5933 122.277C62.2413 122.091 61.9284 121.863 61.6528 121.64C61.647 123.868 61.6554 126.097 61.6752 128.327L61.6841 129.336H61.5187C61.3345 129.938 60.987 130.484 60.5113 130.906L60.5067 130.91C59.7675 131.558 58.7875 131.857 57.8141 131.726L57.7499 131.718L57.6872 131.701C56.0563 131.262 54.9748 129.732 55.0528 128.057C55.0699 126.456 55.0756 124.836 55.0813 123.211C55.0879 121.34 55.0945 119.463 55.1185 117.605C54.5861 117.017 54.0356 116.461 53.4681 115.889C53.1291 115.546 52.7842 115.198 52.4334 114.833C51.18 113.566 49.9712 112.259 48.7762 110.964L48.6321 110.807C47.4849 109.564 46.3491 108.333 45.1796 107.137C44.2665 106.265 43.4454 105.293 42.7452 104.228L42.3184 103.579L42.842 103.005C43.5591 102.219 44.3131 101.467 45.0478 100.734C45.108 100.674 45.1681 100.615 45.228 100.555C46.0258 99.7589 46.7985 98.9813 47.5184 98.1655L47.8823 97.7533L48.4253 97.8397C48.8426 97.906 49.2488 98.0295 49.6293 98.201C51.0202 98.8013 52.561 98.9376 54.0274 98.5893C54.879 98.3808 55.593 97.7758 55.9512 96.9463C56.2336 95.986 56.0254 94.9446 55.3932 94.1676L55.3853 94.1578L55.3853 94.1578C54.7704 93.3823 54.0827 92.66 53.3565 91.9187C53.2368 91.7965 53.1157 91.6735 52.9937 91.5495C52.3919 90.9381 51.7685 90.3046 51.1814 89.6407C50.9671 89.4199 50.7715 89.1901 50.5952 88.9788C50.5531 88.9283 50.5124 88.8793 50.4727 88.8315C50.3346 88.6651 50.2086 88.5133 50.0762 88.3643C49.7395 87.9855 49.446 87.7252 49.1171 87.568L49.1071 87.5632L49.1071 87.5632C48.0987 87.0674 46.9319 87.0111 45.8712 87.4009C44.8642 87.9492 43.9659 88.6737 43.2202 89.5405L43.1977 89.5666L43.1735 89.5911C41.1394 91.6498 39.0644 93.6845 36.9949 95.7138C35.5926 97.089 34.1928 98.4616 32.8099 99.8376L32.7557 99.8915L32.6939 99.9366C31.354 100.914 30.4887 102.444 30.3318 104.119C30.3736 105.701 31.1034 107.184 32.3211 108.173L32.3577 108.203L32.3913 108.236C33.7099 109.53 35.0376 110.892 36.3566 112.245C37.3838 113.298 38.4058 114.347 39.4141 115.353L39.5859 115.518C41.3106 117.174 42.9438 118.91 44.4916 120.732L44.727 121.009L44.7295 121.373C44.8022 132.305 44.7897 143.243 44.7772 154.175C44.7764 154.905 44.7756 155.634 44.7747 156.364L44.7737 157.322L43.8161 157.362C43.4569 157.377 43.0865 157.378 42.7386 157.38C42.6065 157.38 42.4776 157.381 42.3538 157.382C41.8859 157.387 41.455 157.402 41.041 157.453L41.0359 157.454C40.2782 157.545 39.5242 157.532 38.8475 157.521L38.7584 157.52C38.0347 157.508 37.3948 157.503 36.7745 157.589L36.7594 157.591L36.7443 157.593C36.133 157.659 35.5285 157.656 34.9855 157.653L34.9632 157.653C34.4119 157.649 33.9227 157.646 33.4434 157.692C33.4428 157.692 33.4422 157.692 33.4415 157.692L33.346 156.697C32.542 156.777 31.7351 156.775 30.928 156.772C30.0217 156.769 29.1152 156.766 28.2124 156.881L107.301 159.989ZM107.301 159.989L106.387 160.089C99.9345 160.793 93.4442 161.087 86.9264 161.362C85.4172 161.41 83.9211 161.473 82.4318 161.536C79.5445 161.659 76.6825 161.781 73.7992 161.781H73.7791L73.7589 161.782C68.15 162.008 62.5517 161.987 56.9288 161.965C54.4458 161.956 51.958 161.946 49.4625 161.958C48.5373 161.862 47.6209 161.853 46.7456 161.856C46.5906 161.856 46.4372 161.857 46.2853 161.858C45.5551 161.861 44.8575 161.865 44.1599 161.83C43.1252 161.727 42.0996 161.742 41.1358 161.758L41.0682 161.759C40.1037 161.776 39.2014 161.791 38.3074 161.713L38.2882 161.711L38.269 161.71C35.8988 161.595 33.534 161.502 31.174 161.409C23.8016 161.118 16.4772 160.83 9.19077 159.882L9.17724 159.88L9.16366 159.878C8.48058 159.808 7.80689 159.66 7.15417 159.439M107.301 159.989L7.15417 159.439M7.15417 159.439C9.00825 159.119 10.89 158.941 12.807 158.79C13.2624 158.755 13.7209 158.72 14.1815 158.686C15.7064 158.571 17.2544 158.455 18.7909 158.279L7.15417 159.439Z" fill="#782835" stroke="#3E403B" stroke-width="2"/>
<path d="M66.8253 89.0668L66.8639 89.0254L66.8976 88.9799C67.6616 87.9487 68.8584 87.3486 70.1182 87.3522C72.0146 87.46 73.5321 89.0459 73.5576 91.0005L73.5578 91.0206L73.5589 91.0407C73.6063 91.9301 73.3028 92.7992 72.731 93.453L72.6324 93.5542C68.3282 97.969 63.9457 102.312 59.5588 106.659C59.3886 106.828 59.2183 106.996 59.048 107.165C58.1639 108.007 56.9282 108.349 55.7462 108.085C54.4371 107.723 53.3991 106.748 52.9291 105.493C54.5829 105.46 56.2165 105.078 57.7263 104.369L57.7483 104.358L57.7698 104.347C60.5993 102.846 62.4072 99.9227 62.5161 96.6986L62.517 96.6702L62.5164 96.6418C62.4936 95.656 62.4132 94.6719 62.2662 93.694C63.8498 92.2045 65.3538 90.6442 66.8253 89.0668Z" fill="#782835" stroke="#3E403B" stroke-width="2"/>
<path d="M64.4274 110.974L64.4475 110.955L64.4666 110.936C66.4068 108.957 68.3789 106.984 70.3544 105.007C72.9693 102.39 75.59 99.7676 78.15 97.12C78.4494 96.8389 78.8184 96.6469 79.2133 96.5663C80.2058 96.3986 81.2266 96.7266 81.9632 97.457C82.6914 98.1919 83.0298 99.2337 82.8724 100.272C82.7471 101.031 82.3644 101.722 81.792 102.231L81.7814 102.241L81.771 102.251C79.6292 104.271 77.5583 106.361 75.504 108.441C75.3916 108.555 75.2793 108.669 75.1671 108.783C73.2229 110.752 71.291 112.709 69.3071 114.607L69.2493 114.662L69.201 114.726C68.3813 115.809 67.0382 116.331 65.7263 116.086C64.3142 115.787 63.2862 114.535 63.2657 113.062C63.4158 112.259 63.8229 111.526 64.4274 110.974Z" fill="#782835" stroke="#3E403B" stroke-width="2"/>
<path d="M85.5845 115.242H85.9858C84.1687 117.034 82.3805 118.856 80.5999 120.671C79.5051 121.786 78.4131 122.899 77.3191 124L77.3047 124.015L77.291 124.03C76.4296 124.97 75.0484 125.184 73.9491 124.552L73.9382 124.546L73.9272 124.54C73.0522 124.066 72.4019 123.242 72.1379 122.265C72.0467 121.561 72.2832 120.854 72.7722 120.36C76.5784 116.631 80.3387 112.851 84.0535 109.032L84.0832 109.001L84.1103 108.968C84.5832 108.391 85.1893 107.94 85.8801 107.646C86.6618 107.512 87.4638 107.71 88.0863 108.198C88.7437 108.714 89.1492 109.488 89.198 110.337C89.2644 111.547 88.7463 112.715 87.8136 113.46L85.5845 115.242Z" fill="#782835" stroke="#3E403B" stroke-width="2"/>
</svg>
