<svg width="123" height="113" viewBox="0 0 123 113" fill="none" xmlns="http://www.w3.org/2000/svg">
<mask id="path-1-inside-1_189_348" fill="white">
<path d="M13.3727 0C12.662 0 11.9795 0.282002 11.4776 0.783978L0.783978 11.4833C0.282002 11.9853 0 12.6621 0 13.3728V42.7859C0 44.2579 1.20134 45.4593 2.67347 45.4593H16.0462V51.404C16.0462 52.5208 16.7343 53.5134 17.7777 53.9083L28.5954 57.9861C30.4736 57.1118 32.5604 56.6155 34.7657 56.6155C35.6568 56.6155 36.5254 56.7001 37.3714 56.8524H37.3658C37.1684 55.9838 36.5423 55.2675 35.7076 54.9517L21.393 49.5597V45.4594H34.76C36.2377 45.4594 37.4335 44.2637 37.4335 42.7859V2.67955C37.4335 1.20189 36.2378 0.006078 34.76 0.006078L13.3727 0ZM56.1531 0C55.4424 0 54.7656 0.282002 54.2636 0.783978L43.5643 11.4833C43.0623 11.9853 42.7803 12.6621 42.7803 13.3728V42.7859C42.7803 44.2579 43.9816 45.4593 45.4594 45.4593H58.8265V56.8692C59.695 56.7113 60.5862 56.6154 61.4999 56.6154C62.4136 56.6154 63.3048 56.7057 64.1734 56.8692V45.4593H77.5405C79.0181 45.4593 80.2139 44.258 80.2196 42.7859V2.67949C80.2139 1.20183 79.0182 0.000389686 77.5405 0.000389686L56.1531 0ZM98.9335 0C98.2229 0 97.5461 0.282002 97.0441 0.783978L86.3505 11.4833C85.8485 11.9853 85.5665 12.6621 85.5665 13.3728V42.7859C85.5665 44.2579 86.7622 45.4593 88.24 45.4593H101.607V49.5596L87.2924 54.9516C86.4633 55.2731 85.8485 55.9838 85.6511 56.8523C86.4915 56.7001 87.3544 56.6155 88.2343 56.6155C90.4339 56.6155 92.5209 57.1061 94.4046 57.986L105.228 53.9082C106.266 53.5134 106.954 52.5208 106.954 51.404V45.4593H120.327C121.799 45.4593 123 44.2579 123 42.7858V2.67366C123 1.20163 121.799 0.00018727 120.327 0.00018727L98.9335 0ZM12.0356 18.7198H25.4027C26.1133 18.7198 26.7902 19.0018 27.2921 19.5038C27.7941 20.0057 28.0761 20.6825 28.0761 21.3932C28.0761 22.1039 27.7941 22.7807 27.2921 23.2826C26.7902 23.7846 26.1133 24.0666 25.4027 24.0666H12.0356C11.325 24.0666 10.6425 23.7846 10.1405 23.2826C9.63857 22.7807 9.36221 22.1039 9.36221 21.3932C9.36221 20.6825 9.63859 20.0057 10.1405 19.5038C10.6425 19.0018 11.325 18.7198 12.0356 18.7198ZM54.8161 18.7198H68.1831C68.8938 18.7198 69.5706 19.0018 70.0726 19.5038C70.5746 20.0057 70.8566 20.6825 70.8566 21.3932C70.8566 22.1039 70.5746 22.7807 70.0726 23.2826C69.5706 23.7846 68.8938 24.0666 68.1831 24.0666H54.8161C54.1054 24.0666 53.423 23.7846 52.9266 23.2826C52.4246 22.7807 52.1426 22.1039 52.1426 21.3932C52.1426 20.6825 52.4246 20.0057 52.9266 19.5038C53.4229 19.0018 54.1054 18.7198 54.8161 18.7198ZM97.5965 18.7198H110.964C111.674 18.7198 112.357 19.0018 112.859 19.5038C113.355 20.0057 113.637 20.6825 113.637 21.3932C113.637 22.1039 113.355 22.7807 112.859 23.2826C112.357 23.7846 111.674 24.0666 110.964 24.0666H97.5965C96.8858 24.0666 96.209 23.7846 95.707 23.2826C95.2051 22.7807 94.9231 22.1039 94.9231 21.3932C94.9231 20.6825 95.2051 20.0057 95.707 19.5038C96.209 19.0018 96.8858 18.7198 97.5965 18.7198ZM12.0356 29.4134H25.4027C26.1133 29.4134 26.7902 29.6954 27.2921 30.1973C27.7941 30.6993 28.0761 31.3818 28.0761 32.0868C28.0761 32.7975 27.7941 33.4799 27.2921 33.9819C26.7902 34.4782 26.1133 34.7602 25.4027 34.7602H12.0356C11.325 34.7602 10.6425 34.4782 10.1405 33.9819C9.63857 33.4799 9.36221 32.7975 9.36221 32.0868C9.36221 31.3818 9.63859 30.6993 10.1405 30.1973C10.6425 29.6954 11.325 29.4134 12.0356 29.4134ZM54.8161 29.4134H68.1831C68.8938 29.4134 69.5706 29.6954 70.0726 30.1973C70.5746 30.6993 70.8566 31.3818 70.8566 32.0868C70.8566 32.7975 70.5746 33.4799 70.0726 33.9819C69.5706 34.4782 68.8938 34.7602 68.1831 34.7602H54.8161C54.1054 34.7602 53.423 34.4782 52.9266 33.9819C52.4246 33.4799 52.1426 32.7975 52.1426 32.0868C52.1426 31.3818 52.4246 30.6993 52.9266 30.1973C53.4229 29.6954 54.1054 29.4134 54.8161 29.4134ZM97.5965 29.4134H110.964C111.674 29.4134 112.357 29.6954 112.859 30.1973C113.355 30.6993 113.637 31.3818 113.637 32.0868C113.637 32.7975 113.355 33.4799 112.859 33.9819C112.357 34.4782 111.674 34.7602 110.964 34.7602H97.5965C96.8858 34.7602 96.209 34.4782 95.707 33.9819C95.2051 33.4799 94.9231 32.7975 94.9231 32.0868C94.9231 31.3818 95.2051 30.6993 95.707 30.1973C96.209 29.6954 96.8858 29.4134 97.5965 29.4134ZM34.7593 61.9683C29.6211 61.9683 25.4023 66.1871 25.4023 71.3253C25.4023 76.4635 29.6211 80.6823 34.7593 80.6823C39.8974 80.6823 44.1163 76.4578 44.1163 71.3253C44.1163 66.1871 39.8974 61.9683 34.7593 61.9683ZM61.4997 61.9683C56.3616 61.9683 52.1427 66.1871 52.1427 71.3253C52.1427 76.4635 56.3616 80.6823 61.4997 80.6823C66.6379 80.6823 70.8567 76.4578 70.8567 71.3253C70.8567 66.1871 66.6379 61.9683 61.4997 61.9683ZM88.2402 61.9683C83.1021 61.9683 78.8832 66.1871 78.8832 71.3253C78.8832 76.4635 83.1021 80.6823 88.2402 80.6823C93.3784 80.6823 97.5972 76.4578 97.5972 71.3253C97.5972 66.1871 93.3784 61.9683 88.2402 61.9683ZM8.026 84.2299C6.54834 84.2299 5.3469 85.4256 5.3469 86.9034V109.633C5.3469 111.105 6.54824 112.306 8.026 112.306H114.979H114.974C116.451 112.306 117.653 111.105 117.653 109.633V86.9034C117.653 85.4257 116.451 84.2299 114.974 84.2299H8.026ZM21.3931 95.5947H29.4133C30.124 95.5947 30.8008 95.8767 31.3028 96.3731C31.8048 96.875 32.0868 97.5575 32.0868 98.2681C32.0868 98.9732 31.8048 99.6556 31.3028 100.158C30.8008 100.66 30.124 100.942 29.4133 100.942H21.3931C19.9154 100.942 18.7196 99.7459 18.7196 98.2681C18.7196 97.5574 19.0016 96.875 19.5036 96.373C20.0055 95.8767 20.6824 95.5947 21.3931 95.5947ZM40.1128 95.5947H82.8933C83.5983 95.5947 84.2807 95.8767 84.7827 96.3731C85.2847 96.875 85.5667 97.5575 85.5667 98.2681C85.5667 99.7458 84.3654 100.942 82.8932 100.942H40.107C39.402 100.942 38.7196 100.66 38.2176 100.158C37.7156 99.6557 37.4336 98.9732 37.4336 98.2682C37.4336 97.5575 37.7156 96.8751 38.2176 96.3731C38.7196 95.8768 39.402 95.5948 40.107 95.5948L40.1128 95.5947ZM93.5866 95.5947H101.607C102.318 95.5947 102.994 95.8767 103.496 96.3731C103.998 96.875 104.28 97.5575 104.28 98.2681C104.28 99.7458 103.085 100.942 101.607 100.942H93.5865C92.8759 100.942 92.1991 100.66 91.6971 100.158C91.1951 99.6557 90.9131 98.9732 90.9131 98.2682C90.9131 97.5575 91.1951 96.8751 91.6971 96.3731C92.1991 95.8768 92.8759 95.5947 93.5866 95.5947Z"/>
</mask>
<path d="M13.3727 0C12.662 0 11.9795 0.282002 11.4776 0.783978L0.783978 11.4833C0.282002 11.9853 0 12.6621 0 13.3728V42.7859C0 44.2579 1.20134 45.4593 2.67347 45.4593H16.0462V51.404C16.0462 52.5208 16.7343 53.5134 17.7777 53.9083L28.5954 57.9861C30.4736 57.1118 32.5604 56.6155 34.7657 56.6155C35.6568 56.6155 36.5254 56.7001 37.3714 56.8524H37.3658C37.1684 55.9838 36.5423 55.2675 35.7076 54.9517L21.393 49.5597V45.4594H34.76C36.2377 45.4594 37.4335 44.2637 37.4335 42.7859V2.67955C37.4335 1.20189 36.2378 0.006078 34.76 0.006078L13.3727 0ZM56.1531 0C55.4424 0 54.7656 0.282002 54.2636 0.783978L43.5643 11.4833C43.0623 11.9853 42.7803 12.6621 42.7803 13.3728V42.7859C42.7803 44.2579 43.9816 45.4593 45.4594 45.4593H58.8265V56.8692C59.695 56.7113 60.5862 56.6154 61.4999 56.6154C62.4136 56.6154 63.3048 56.7057 64.1734 56.8692V45.4593H77.5405C79.0181 45.4593 80.2139 44.258 80.2196 42.7859V2.67949C80.2139 1.20183 79.0182 0.000389686 77.5405 0.000389686L56.1531 0ZM98.9335 0C98.2229 0 97.5461 0.282002 97.0441 0.783978L86.3505 11.4833C85.8485 11.9853 85.5665 12.6621 85.5665 13.3728V42.7859C85.5665 44.2579 86.7622 45.4593 88.24 45.4593H101.607V49.5596L87.2924 54.9516C86.4633 55.2731 85.8485 55.9838 85.6511 56.8523C86.4915 56.7001 87.3544 56.6155 88.2343 56.6155C90.4339 56.6155 92.5209 57.1061 94.4046 57.986L105.228 53.9082C106.266 53.5134 106.954 52.5208 106.954 51.404V45.4593H120.327C121.799 45.4593 123 44.2579 123 42.7858V2.67366C123 1.20163 121.799 0.00018727 120.327 0.00018727L98.9335 0ZM12.0356 18.7198H25.4027C26.1133 18.7198 26.7902 19.0018 27.2921 19.5038C27.7941 20.0057 28.0761 20.6825 28.0761 21.3932C28.0761 22.1039 27.7941 22.7807 27.2921 23.2826C26.7902 23.7846 26.1133 24.0666 25.4027 24.0666H12.0356C11.325 24.0666 10.6425 23.7846 10.1405 23.2826C9.63857 22.7807 9.36221 22.1039 9.36221 21.3932C9.36221 20.6825 9.63859 20.0057 10.1405 19.5038C10.6425 19.0018 11.325 18.7198 12.0356 18.7198ZM54.8161 18.7198H68.1831C68.8938 18.7198 69.5706 19.0018 70.0726 19.5038C70.5746 20.0057 70.8566 20.6825 70.8566 21.3932C70.8566 22.1039 70.5746 22.7807 70.0726 23.2826C69.5706 23.7846 68.8938 24.0666 68.1831 24.0666H54.8161C54.1054 24.0666 53.423 23.7846 52.9266 23.2826C52.4246 22.7807 52.1426 22.1039 52.1426 21.3932C52.1426 20.6825 52.4246 20.0057 52.9266 19.5038C53.4229 19.0018 54.1054 18.7198 54.8161 18.7198ZM97.5965 18.7198H110.964C111.674 18.7198 112.357 19.0018 112.859 19.5038C113.355 20.0057 113.637 20.6825 113.637 21.3932C113.637 22.1039 113.355 22.7807 112.859 23.2826C112.357 23.7846 111.674 24.0666 110.964 24.0666H97.5965C96.8858 24.0666 96.209 23.7846 95.707 23.2826C95.2051 22.7807 94.9231 22.1039 94.9231 21.3932C94.9231 20.6825 95.2051 20.0057 95.707 19.5038C96.209 19.0018 96.8858 18.7198 97.5965 18.7198ZM12.0356 29.4134H25.4027C26.1133 29.4134 26.7902 29.6954 27.2921 30.1973C27.7941 30.6993 28.0761 31.3818 28.0761 32.0868C28.0761 32.7975 27.7941 33.4799 27.2921 33.9819C26.7902 34.4782 26.1133 34.7602 25.4027 34.7602H12.0356C11.325 34.7602 10.6425 34.4782 10.1405 33.9819C9.63857 33.4799 9.36221 32.7975 9.36221 32.0868C9.36221 31.3818 9.63859 30.6993 10.1405 30.1973C10.6425 29.6954 11.325 29.4134 12.0356 29.4134ZM54.8161 29.4134H68.1831C68.8938 29.4134 69.5706 29.6954 70.0726 30.1973C70.5746 30.6993 70.8566 31.3818 70.8566 32.0868C70.8566 32.7975 70.5746 33.4799 70.0726 33.9819C69.5706 34.4782 68.8938 34.7602 68.1831 34.7602H54.8161C54.1054 34.7602 53.423 34.4782 52.9266 33.9819C52.4246 33.4799 52.1426 32.7975 52.1426 32.0868C52.1426 31.3818 52.4246 30.6993 52.9266 30.1973C53.4229 29.6954 54.1054 29.4134 54.8161 29.4134ZM97.5965 29.4134H110.964C111.674 29.4134 112.357 29.6954 112.859 30.1973C113.355 30.6993 113.637 31.3818 113.637 32.0868C113.637 32.7975 113.355 33.4799 112.859 33.9819C112.357 34.4782 111.674 34.7602 110.964 34.7602H97.5965C96.8858 34.7602 96.209 34.4782 95.707 33.9819C95.2051 33.4799 94.9231 32.7975 94.9231 32.0868C94.9231 31.3818 95.2051 30.6993 95.707 30.1973C96.209 29.6954 96.8858 29.4134 97.5965 29.4134ZM34.7593 61.9683C29.6211 61.9683 25.4023 66.1871 25.4023 71.3253C25.4023 76.4635 29.6211 80.6823 34.7593 80.6823C39.8974 80.6823 44.1163 76.4578 44.1163 71.3253C44.1163 66.1871 39.8974 61.9683 34.7593 61.9683ZM61.4997 61.9683C56.3616 61.9683 52.1427 66.1871 52.1427 71.3253C52.1427 76.4635 56.3616 80.6823 61.4997 80.6823C66.6379 80.6823 70.8567 76.4578 70.8567 71.3253C70.8567 66.1871 66.6379 61.9683 61.4997 61.9683ZM88.2402 61.9683C83.1021 61.9683 78.8832 66.1871 78.8832 71.3253C78.8832 76.4635 83.1021 80.6823 88.2402 80.6823C93.3784 80.6823 97.5972 76.4578 97.5972 71.3253C97.5972 66.1871 93.3784 61.9683 88.2402 61.9683ZM8.026 84.2299C6.54834 84.2299 5.3469 85.4256 5.3469 86.9034V109.633C5.3469 111.105 6.54824 112.306 8.026 112.306H114.979H114.974C116.451 112.306 117.653 111.105 117.653 109.633V86.9034C117.653 85.4257 116.451 84.2299 114.974 84.2299H8.026ZM21.3931 95.5947H29.4133C30.124 95.5947 30.8008 95.8767 31.3028 96.3731C31.8048 96.875 32.0868 97.5575 32.0868 98.2681C32.0868 98.9732 31.8048 99.6556 31.3028 100.158C30.8008 100.66 30.124 100.942 29.4133 100.942H21.3931C19.9154 100.942 18.7196 99.7459 18.7196 98.2681C18.7196 97.5574 19.0016 96.875 19.5036 96.373C20.0055 95.8767 20.6824 95.5947 21.3931 95.5947ZM40.1128 95.5947H82.8933C83.5983 95.5947 84.2807 95.8767 84.7827 96.3731C85.2847 96.875 85.5667 97.5575 85.5667 98.2681C85.5667 99.7458 84.3654 100.942 82.8932 100.942H40.107C39.402 100.942 38.7196 100.66 38.2176 100.158C37.7156 99.6557 37.4336 98.9732 37.4336 98.2682C37.4336 97.5575 37.7156 96.8751 38.2176 96.3731C38.7196 95.8768 39.402 95.5948 40.107 95.5948L40.1128 95.5947ZM93.5866 95.5947H101.607C102.318 95.5947 102.994 95.8767 103.496 96.3731C103.998 96.875 104.28 97.5575 104.28 98.2681C104.28 99.7458 103.085 100.942 101.607 100.942H93.5865C92.8759 100.942 92.1991 100.66 91.6971 100.158C91.1951 99.6557 90.9131 98.9732 90.9131 98.2682C90.9131 97.5575 91.1951 96.8751 91.6971 96.3731C92.1991 95.8768 92.8759 95.5947 93.5866 95.5947Z" fill="#782835" stroke="#3F413C" stroke-width="4" mask="url(#path-1-inside-1_189_348)"/>
</svg>
