<svg width="797" height="124" viewBox="0 0 797 124" fill="none" xmlns="http://www.w3.org/2000/svg">
<path d="M788.835 34.876L796.999 89.72H782.399L781.688 79.8623H776.573L775.726 89.72H760.956L768.205 34.876H788.835ZM781.281 70.1401C780.559 63.9297 779.836 56.2626 779.113 47.1388C777.668 57.6176 776.765 65.2847 776.403 70.1401H781.281Z" fill="#782835"/>
<path d="M757.095 34.876V89.72H742.834V34.876H757.095Z" fill="#782835"/>
<path d="M704.049 34.876H714.144C720.874 34.876 725.424 35.1357 727.795 35.6551C730.189 36.1745 732.131 37.507 733.622 39.6524C735.135 41.7752 735.892 45.1741 735.892 49.8488C735.892 54.1171 735.361 56.9852 734.299 58.4532C733.238 59.9211 731.149 60.8018 728.033 61.0954C730.855 61.7955 732.753 62.7327 733.724 63.9071C734.695 65.0814 735.293 66.1654 735.519 67.1591C735.767 68.1302 735.892 70.8289 735.892 75.2553V89.72H722.646V71.4951C722.646 68.5593 722.409 66.7413 721.935 66.0412C721.483 65.3411 720.275 64.9911 718.31 64.9911V89.72H704.049V34.876ZM718.31 44.2594V56.4545C719.914 56.4545 721.032 56.24 721.664 55.8109C722.319 55.3592 722.646 53.9252 722.646 51.5087V48.4938C722.646 46.7549 722.33 45.6144 721.698 45.0724C721.088 44.5304 719.959 44.2594 718.31 44.2594Z" fill="#782835"/>
<path d="M673.8 34.876H697.58V45.8516H688.061V56.2513H696.97V66.6848H688.061V78.7444H698.529V89.72H673.8V34.876Z" fill="#782835"/>
<path d="M666.858 55.0655H652.596V50.0859C652.596 46.9468 652.461 44.982 652.19 44.1916C651.919 43.4012 651.275 43.0059 650.259 43.0059C649.378 43.0059 648.779 43.3447 648.463 44.0222C648.147 44.6997 647.989 46.4386 647.989 49.239V75.5601C647.989 78.0217 648.147 79.6477 648.463 80.4381C648.779 81.2059 649.412 81.5899 650.36 81.5899C651.399 81.5899 652.099 81.1495 652.461 80.2687C652.844 79.388 653.036 77.6716 653.036 75.1197V68.6156H650.157V60.2823H666.858V89.7199H657.881L656.559 85.7904C655.588 87.4842 654.358 88.7601 652.867 89.6183C651.399 90.4539 649.66 90.8717 647.65 90.8717C645.256 90.8717 643.009 90.2958 640.909 89.144C638.831 87.9697 637.251 86.5244 636.167 84.808C635.083 83.0917 634.405 81.2963 634.134 79.4218C633.863 77.5248 633.728 74.6906 633.728 70.9192V54.6252C633.728 49.3858 634.01 45.5805 634.574 43.2092C635.139 40.8379 636.754 38.6699 639.419 36.7051C642.106 34.7178 645.573 33.7241 649.818 33.7241C653.996 33.7241 657.463 34.5823 660.218 36.2986C662.973 38.015 664.769 40.0588 665.604 42.4301C666.44 44.7787 666.858 48.2001 666.858 52.6943V55.0655Z" fill="#782835"/>
<path d="M627.021 34.876V89.72H612.76V34.876H627.021Z" fill="#782835"/>
<path d="M605.611 34.876V89.72H593.111L585.693 64.7878V89.72H573.769V34.876H585.693L593.687 59.571V34.876H605.611Z" fill="#782835"/>
<path d="M555.479 34.876V45.8516H547.01V89.72H532.748V45.8516H524.313V34.876H555.479Z" fill="#782835"/>
<path d="M487.969 34.876H498.064C504.793 34.876 509.344 35.1357 511.715 35.6551C514.109 36.1745 516.051 37.507 517.542 39.6524C519.055 41.7752 519.811 45.1741 519.811 49.8488C519.811 54.1171 519.281 56.9852 518.219 58.4532C517.158 59.9211 515.069 60.8018 511.952 61.0954C514.775 61.7955 516.672 62.7327 517.643 63.9071C518.615 65.0814 519.213 66.1654 519.439 67.1591C519.687 68.1302 519.811 70.8289 519.811 75.2553V89.72H506.566V71.4951C506.566 68.5593 506.329 66.7413 505.855 66.0412C505.403 65.3411 504.195 64.9911 502.23 64.9911V89.72H487.969V34.876ZM502.23 44.2594V56.4545C503.834 56.4545 504.952 56.24 505.584 55.8109C506.239 55.3592 506.566 53.9252 506.566 51.5087V48.4938C506.566 46.7549 506.25 45.6144 505.618 45.0724C505.008 44.5304 503.879 44.2594 502.23 44.2594Z" fill="#782835"/>
<path d="M475.976 34.876L484.14 89.72H469.54L468.828 79.8623H463.713L462.866 89.72H448.097L455.346 34.876H475.976ZM468.422 70.1401C467.699 63.9297 466.976 56.2626 466.254 47.1388C464.808 57.6176 463.905 65.2847 463.544 70.1401H468.422Z" fill="#782835"/>
<path d="M444.204 34.876V89.72H429.943V66.6848H425.675V89.72H411.413V34.876H425.675V54.4898H429.943V34.876H444.204Z" fill="#782835"/>
<path d="M404.912 58.7918H390.65V49.239C390.65 46.4612 390.492 44.7336 390.176 44.0561C389.883 43.356 389.216 43.0059 388.178 43.0059C387.003 43.0059 386.258 43.4237 385.942 44.2593C385.626 45.0949 385.468 46.9016 385.468 49.6794V75.1536C385.468 77.8184 385.626 79.5573 385.942 80.3704C386.258 81.1834 386.969 81.5899 388.076 81.5899C389.137 81.5899 389.826 81.1834 390.142 80.3704C390.481 79.5573 390.65 77.649 390.65 74.6454V67.7688H404.912V69.9029C404.912 75.5714 404.505 79.5912 403.692 81.9625C402.902 84.3338 401.129 86.4114 398.374 88.1955C395.641 89.9796 392.265 90.8717 388.245 90.8717C384.067 90.8717 380.623 90.1151 377.913 88.602C375.203 87.0889 373.408 85 372.527 82.3351C371.646 79.6477 371.206 75.6165 371.206 70.2417V54.2187C371.206 50.2665 371.342 47.3081 371.613 45.3433C371.884 43.356 372.685 41.4477 374.018 39.6184C375.373 37.7892 377.236 36.3551 379.607 35.3163C382.001 34.2548 384.745 33.7241 387.839 33.7241C392.039 33.7241 395.506 34.5371 398.239 36.1631C400.971 37.7892 402.767 39.8217 403.625 42.2607C404.483 44.6771 404.912 48.4486 404.912 53.575V58.7918Z" fill="#782835"/>
<path d="M367.378 34.876L361.043 89.72H343.225C341.599 81.2964 340.165 71.721 338.923 60.9938C338.358 65.5783 337.037 75.1537 334.959 89.72H317.243L310.874 34.876H324.729L326.186 54.0155L327.676 72.4775C328.196 62.9247 329.505 50.3908 331.606 34.876H346.443C346.646 36.4794 347.166 42.5092 348.001 52.9654L349.56 73.7987C350.35 60.5421 351.671 47.5679 353.523 34.876H367.378Z" fill="#782835"/>
<path d="M306.981 66.9896C306.981 72.5 306.845 76.4069 306.574 78.7105C306.326 80.9914 305.513 83.0804 304.135 84.9774C302.78 86.8744 300.94 88.331 298.614 89.3473C296.288 90.3636 293.578 90.8717 290.484 90.8717C287.548 90.8717 284.905 90.3974 282.557 89.4489C280.231 88.4778 278.356 87.0325 276.933 85.1129C275.511 83.1933 274.664 81.1043 274.393 78.846C274.122 76.5876 273.986 72.6355 273.986 66.9896V57.6062C273.986 52.0958 274.111 48.2001 274.359 45.9192C274.63 43.6157 275.443 41.5154 276.798 39.6184C278.176 37.7214 280.027 36.2648 282.354 35.2485C284.68 34.2323 287.39 33.7241 290.484 33.7241C293.419 33.7241 296.05 34.2097 298.377 35.1808C300.725 36.1293 302.611 37.5633 304.034 39.4829C305.456 41.4025 306.303 43.4915 306.574 45.7498C306.845 48.0082 306.981 51.9603 306.981 57.6062V66.9896ZM292.719 48.968C292.719 46.4161 292.573 44.79 292.279 44.09C292.008 43.3673 291.432 43.0059 290.551 43.0059C289.806 43.0059 289.23 43.2995 288.824 43.8867C288.44 44.4513 288.248 46.1451 288.248 48.968V74.5777C288.248 77.762 288.372 79.7267 288.62 80.472C288.891 81.2172 289.501 81.5899 290.45 81.5899C291.421 81.5899 292.042 81.1608 292.313 80.3026C292.584 79.4444 292.719 77.4006 292.719 74.1712V48.968Z" fill="#782835"/>
<path d="M261.927 34.876V78.7444H270.599V89.72H247.665V34.876H261.927Z" fill="#782835"/>
<path d="M218.636 34.876H242.789V45.8516H232.897V56.2513H241.705V66.6848H232.897V89.72H218.636V34.876Z" fill="#782835"/>
<path d="M174.735 34.876H198.516V45.8516H188.997V56.2513H197.906V66.6848H188.997V78.7444H199.464V89.72H174.735V34.876Z" fill="#782835"/>
<path d="M167.589 34.876V89.72H153.328V66.6848H149.059V89.72H134.798V34.876H149.059V54.4898H153.328V34.876H167.589Z" fill="#782835"/>
<path d="M130.158 34.876V45.8516H121.69V89.72H107.428V45.8516H98.9932V34.876H130.158Z" fill="#782835"/>
<path d="M43.376 77.6691C42.2807 88.0564 33.5679 96.6313 21.4689 96.6313C9.20098 95.7238 1.5335 88.2754 0 77.6691C0 67.1965 21.4689 22.2993 21.4689 22.2993C21.4689 22.2993 43.376 67.1965 43.376 77.6691Z" fill="#B94A75"/>
<path fill-rule="evenodd" clip-rule="evenodd" d="M22.8514 25.17C21.9821 23.351 21.4689 22.2993 21.4689 22.2993C21.4689 22.2993 20.9641 23.3552 20.1091 25.1808C15.3892 35.2599 0 68.8025 0 77.6691C1.5335 88.2754 9.20098 95.7238 21.4689 96.6313C33.5679 96.6313 42.2807 88.0564 43.376 77.6691C43.376 68.7994 27.6616 35.2361 22.8514 25.17ZM21.4916 28.0784C21.147 28.82 20.7697 29.6353 20.3652 30.5141C18.3583 34.8742 15.6843 40.7924 13.0121 47.0324C10.3372 53.2788 7.6771 59.8174 5.69005 65.4268C4.69607 68.2328 3.88166 70.7751 3.31859 72.9139C2.77439 74.9811 2.50785 76.5163 2.48015 77.5024C3.19908 82.2102 5.24184 86.1132 8.37309 88.9515C11.5312 91.8141 15.9375 93.7205 21.5599 94.1534C32.2904 94.1111 39.8756 86.5847 40.8969 77.5468C40.8757 76.569 40.6053 75.0235 40.0418 72.926C39.4676 70.7886 38.637 68.2473 37.6229 65.4417C35.5956 59.8333 32.8815 53.2953 30.1521 47.0491C27.4255 40.8094 24.6971 34.8915 22.6492 30.5315C22.2332 29.6457 21.8454 28.8246 21.4916 28.0784Z" fill="#333531"/>
<path d="M40.8722 66.8058C44.6277 78.6982 33.4593 95.3875 21.8443 95.3875C10.2293 95.3875 0.813477 87.2374 0.813477 77.1838C0.813477 67.1301 12.2052 34.7707 21.8443 52.7343C27.8685 63.961 37.1167 54.9133 40.8722 66.8058Z" fill="#782835"/>
<path fill-rule="evenodd" clip-rule="evenodd" d="M35.0609 84.1814C38.5757 78.9119 40.0877 72.5498 38.5094 67.5519C37.6916 64.9621 36.6865 63.8338 35.781 63.226C34.7814 62.5551 33.5838 62.2812 31.7756 61.9599C31.6694 61.9411 31.561 61.922 31.4505 61.9026C29.8125 61.6149 27.7247 61.2481 25.693 60.198C23.4286 59.0275 21.3773 57.1042 19.661 53.9058C18.5561 51.8467 17.5645 50.7822 16.808 50.2827C16.1456 49.8454 15.643 49.8158 15.1471 49.9519C14.5366 50.1193 13.722 50.6111 12.7487 51.6336C11.7932 52.6373 10.8183 54.0124 9.86613 55.6808C7.96245 59.0163 6.30402 63.2503 5.12216 67.2915C3.92926 71.3705 3.29121 75.0159 3.29121 77.1838C3.29121 85.5453 11.2498 92.9098 21.8443 92.9098C26.4923 92.9098 31.5253 89.4821 35.0609 84.1814ZM21.8443 95.3875C33.4593 95.3875 44.6277 78.6982 40.8722 66.8058C38.9476 60.7112 35.5804 60.1161 31.9439 59.4735C28.4845 58.8621 24.7812 58.2076 21.8443 52.7343C12.2052 34.7707 0.813477 67.1301 0.813477 77.1838C0.813477 87.2374 10.2293 95.3875 21.8443 95.3875Z" fill="#333531"/>
<path d="M41.6226 71.186C46.0041 83.4538 35.9276 95.9605 20.5919 95.9605C8.7412 95.9605 -2.40982 82.7982 1.31368 71.1862C1.31368 71.1862 9.6559 71.1862 20.5919 71.1863C49.5093 71.1859 40.5907 68.2967 41.6226 71.186Z" fill="#333531"/>
<path fill-rule="evenodd" clip-rule="evenodd" d="M39.0631 70.5C39.2996 70.4728 39.519 70.4457 39.7226 70.4189C40.9314 70.2596 41.5791 70.111 41.8933 70.0144C41.6623 70.178 41.3904 70.5356 41.6226 71.186C41.7643 71.5825 41.8908 71.9793 42.0025 72.3759C42.0174 72.4287 42.032 72.4815 42.0463 72.5343C45.2588 84.3532 35.3659 95.9605 20.5919 95.9605C8.7412 95.9605 -2.40982 82.7982 1.31368 71.1862L20.5919 71.1863C30.6711 71.1862 36.1537 70.8351 39.0631 70.5ZM39.5834 72.9332C36.5377 73.2999 30.9041 73.6639 20.5919 73.664L3.2518 73.6639C2.5063 78.0024 4.02011 82.606 7.04526 86.3775C10.4806 90.6604 15.5672 93.4827 20.5919 93.4827C34.2754 93.4827 42.4467 82.9042 39.5834 72.9332ZM41.8933 70.0144C42.1079 69.9484 42.1669 69.9066 42.1427 69.9022C42.1185 69.8979 42.0112 69.9309 41.8933 70.0144Z" fill="#333531"/>
<path d="M71.3311 0H73.8088V123.887H71.3311V0Z" fill="#3F413C"/>
</svg>
