<svg width="82" height="137" viewBox="0 0 82 137" fill="none" xmlns="http://www.w3.org/2000/svg">
<path d="M63.3671 135.636L41.4469 134.685L57.4764 103.986C57.7466 104.247 58.1012 104.375 58.4483 104.37C58.5014 104.369 58.5454 104.365 58.5772 104.361C58.5907 104.36 58.6023 104.358 58.606 104.357L58.6061 104.357L58.6184 104.356C58.9196 104.311 59.1963 104.171 59.4107 103.954L59.4207 103.944L59.4304 103.933L59.6162 103.734L59.617 103.733C60.0523 103.264 60.1031 102.561 59.7594 102.037L59.7005 101.946L59.7005 101.946L59.6953 101.938C59.3205 101.368 58.9928 100.849 58.8876 100.299C58.8021 99.852 58.8504 99.3114 59.4459 98.6333L59.4842 98.5922C59.8489 98.2014 60.3111 97.9775 60.7878 97.9128C61.4234 97.8274 62.0877 98.0229 62.5935 98.5105L62.5945 98.5114L77.4992 112.837C78.9203 114.204 80.0604 115.845 80.5011 117.462C80.9266 119.023 80.7108 120.564 79.4098 121.961L68.6369 133.483C67.6217 134.566 67.0631 135.146 65.7618 135.446L65.7614 135.446C65.4157 135.526 65.1369 135.58 64.87 135.616L64.8675 135.616C64.4617 135.671 64.043 135.683 63.3935 135.638L63.3803 135.637L63.3671 135.636ZM59.0733 98.8573L59.0754 98.8566C59.0734 98.8573 59.0722 98.8577 59.0733 98.8573Z" fill="#782835" stroke="#3E403B" stroke-width="2"/>
<mask id="path-2-inside-1_189_332" fill="white">
<path d="M32.2013 114.535C31.6701 114.27 31.0255 114.492 30.7636 115.029L26.8828 123.012C26.6208 123.55 26.8392 124.204 27.3714 124.47C27.9044 124.735 28.5489 124.515 28.8109 123.974L32.6908 115.994C32.9528 115.455 32.7334 114.8 32.2013 114.535Z"/>
</mask>
<path d="M32.2013 114.535C31.6701 114.27 31.0255 114.492 30.7636 115.029L26.8828 123.012C26.6208 123.55 26.8392 124.204 27.3714 124.47C27.9044 124.735 28.5489 124.515 28.8109 123.974L32.6908 115.994C32.9528 115.455 32.7334 114.8 32.2013 114.535Z" fill="#782835"/>
<path d="M32.2013 114.535L33.0946 112.745L33.0934 112.745L32.2013 114.535ZM30.7636 115.029L28.9656 114.153L28.9649 114.155L30.7636 115.029ZM26.8828 123.012L28.6813 123.886L28.6815 123.886L26.8828 123.012ZM27.3714 124.47L26.4781 126.259L26.4793 126.26L27.3714 124.47ZM28.8109 123.974L27.0122 123.1L27.0112 123.102L28.8109 123.974ZM32.6908 115.994L30.8923 115.119L30.8921 115.119L32.6908 115.994ZM33.0934 112.745C31.5548 111.978 29.7083 112.629 28.9656 114.153L32.5615 115.905C32.3427 116.354 31.7853 116.562 31.3092 116.325L33.0934 112.745ZM28.9649 114.155L25.0841 122.137L28.6815 123.886L32.5622 115.904L28.9649 114.155ZM25.0842 122.137C24.3499 123.647 24.9502 125.496 26.4781 126.259L28.2647 122.68C28.7283 122.912 28.8917 123.454 28.6813 123.886L25.0842 122.137ZM26.4793 126.26C28.0167 127.026 29.8671 126.38 30.6106 124.846L27.0112 123.102C27.2308 122.649 27.7921 122.445 28.2635 122.68L26.4793 126.26ZM30.6096 124.849L34.4895 116.868L30.8921 115.119L27.0122 123.1L30.6096 124.849ZM34.4894 116.868C35.2245 115.357 34.6208 113.507 33.0946 112.745L31.308 116.324C30.846 116.094 30.681 115.553 30.8923 115.119L34.4894 116.868Z" fill="#3E403B" mask="url(#path-2-inside-1_189_332)"/>
<path d="M27.8635 109.317L26.9154 109.635C26.9232 109.659 26.9224 109.685 26.9108 109.712C26.9045 109.723 26.8971 109.733 26.8899 109.739C26.8829 109.745 26.875 109.75 26.8646 109.754C26.8645 109.754 26.8643 109.754 26.8642 109.754L18.5597 112.614C18.5596 112.614 18.5596 112.614 18.5596 112.614C18.5328 112.623 18.4876 112.613 18.4694 112.56C18.4603 112.532 18.4628 112.506 18.4743 112.482C18.4858 112.458 18.5013 112.447 18.5172 112.441L18.5174 112.441L26.8256 109.582L26.8263 109.581C26.8522 109.573 26.8973 109.581 26.9155 109.636L27.8635 109.317ZM27.8635 109.317C27.9587 109.601 27.9306 109.899 27.81 110.149L26.5001 108.636C27.0622 108.442 27.6723 108.747 27.8635 109.317Z" fill="#782835" stroke="#3E403B" stroke-width="2"/>
<path d="M28.0162 103.636C28.5474 103.901 29.1929 103.68 29.454 103.141C29.7168 102.6 29.4984 101.946 28.9663 101.681L28.0162 103.636ZM28.0162 103.636L20.1459 99.7024L28.0162 103.636ZM20.5562 98.6807L20.5568 98.6795C20.5779 98.636 20.6201 98.6277 20.6501 98.6424C20.6503 98.6425 20.6504 98.6425 20.6505 98.6426L28.5192 102.575L28.5196 102.575C28.5361 102.584 28.5511 102.598 28.5597 102.624C28.5685 102.65 28.5672 102.678 28.5544 102.704L28.5541 102.705C28.5333 102.748 28.491 102.755 28.4635 102.741L28.4633 102.741L20.5931 98.808C20.5931 98.808 20.5931 98.808 20.5931 98.808C20.5753 98.7991 20.5601 98.7835 20.5514 98.7576C20.5427 98.7315 20.5443 98.7052 20.5562 98.6807Z" fill="#782835" stroke="#3E403B" stroke-width="2"/>
<path d="M46.9638 31.4547C46.9638 34.7022 44.3712 37.311 41.2021 37.311C38.0331 37.311 35.4404 34.7022 35.4404 31.4547C35.4404 28.2071 38.0331 25.5983 41.2021 25.5983C44.3712 25.5983 46.9638 28.2071 46.9638 31.4547Z" fill="#782835" stroke="#3E403B" stroke-width="2"/>
<path d="M1.70145 56.8966V56.8965L1.69873 21.586C1.69873 21.586 1.69873 21.586 1.69873 21.5859C1.69877 10.4947 9.95938 1.62158 19.935 1.62158H62.4325C72.4081 1.62158 80.6696 10.4956 80.6696 21.586V56.8947C80.6696 67.987 72.4081 76.8601 62.4325 76.8601H48.8302H48.2552L47.9659 77.3571L35.9494 98.0024C35.7641 98.1851 35.5047 98.331 35.2155 98.41C34.8899 98.499 34.6135 98.4801 34.4502 98.4214C34.2963 98.3631 34.0897 98.208 33.9158 97.9568C33.7412 97.7048 33.6661 97.4517 33.6661 97.2784V77.8592V76.8592H32.6661H19.9368C9.96206 76.8592 1.70145 67.986 1.70145 56.8966ZM28.1098 31.4749C28.1098 34.192 28.9034 37.362 30.0424 40.534C31.1871 43.7214 32.7079 46.9842 34.2209 49.909C35.7351 52.8361 37.2496 55.44 38.3881 57.312C38.9576 58.2484 39.4339 59.0032 39.7704 59.5256C39.9385 59.7865 40.0724 59.9907 40.1662 60.1313C40.2128 60.201 40.2513 60.2579 40.2799 60.2993C40.2935 60.3189 40.309 60.341 40.3237 60.361C40.3296 60.3691 40.3438 60.3883 40.3616 60.4101C40.3683 60.4183 40.3909 60.4461 40.4224 60.4785C40.441 60.4971 40.4936 60.5449 40.5287 60.5733C40.6045 60.6264 40.9216 60.7566 41.1757 60.7804L41.1758 60.7813C41.1772 60.7812 41.1785 60.781 41.1799 60.7808C41.181 60.7809 41.1822 60.781 41.1833 60.7811L41.1833 60.7802C41.3941 60.7482 41.6659 60.6327 41.738 60.5837C41.7738 60.5558 41.8281 60.508 41.8478 60.4889C41.8819 60.4549 41.9062 60.4256 41.9139 60.4163C41.9336 60.3926 41.9491 60.3716 41.9555 60.3629C41.9615 60.3549 41.9675 60.3466 41.9734 60.3383C41.9832 60.3245 41.9929 60.3107 42.0016 60.2981C42.031 60.2556 42.0701 60.1976 42.1169 60.1271C42.2114 59.9848 42.3459 59.7786 42.5143 59.5155C42.8515 58.9887 43.3282 58.2281 43.8979 57.2855C45.0368 55.4009 46.5509 52.7824 48.0646 49.8459C49.5769 46.9119 51.0967 43.6451 52.2406 40.4662C53.3785 37.3038 54.1724 34.1532 54.1724 31.4749C54.1724 24.1987 48.3492 18.276 41.1402 18.276C33.9311 18.276 28.1098 24.1979 28.1098 31.4749Z" fill="#782835" stroke="#3E403B" stroke-width="2"/>
</svg>
