<svg width="150" height="150" viewBox="0 0 150 150" fill="none" xmlns="http://www.w3.org/2000/svg">
<circle cx="75" cy="75" r="74" stroke="#3F413C" stroke-width="2"/>
<path d="M54.8894 89.8845C55.5103 89.8845 56.0137 89.3811 56.0137 88.7602V61.9487C56.0137 61.3279 55.5103 60.8245 54.8894 60.8245C54.2685 60.8245 53.7651 61.3279 53.7651 61.9487V88.7602C53.7651 89.3811 54.2685 89.8845 54.8894 89.8845Z" fill="#782835"/>
<path d="M46.8288 89.8845C47.4497 89.8845 47.9531 89.3811 47.9531 88.7602V61.9487C47.9531 61.3279 47.4497 60.8245 46.8288 60.8245C46.208 60.8245 45.7046 61.3279 45.7046 61.9487V88.7602C45.7046 89.3811 46.208 89.8845 46.8288 89.8845Z" fill="#782835"/>
<path d="M29 105.578C29 113.498 34.4171 119.941 41.0754 119.941H60.6428C67.3011 119.941 72.7182 113.498 72.7182 105.578C72.7182 101.565 71.2838 97.758 68.6795 94.8584C65.1871 90.9713 63.0176 83.3507 63.0176 74.9704C63.0176 66.59 65.1871 58.9694 68.6801 55.0823C71.2838 52.1827 72.7182 48.3757 72.7182 44.3623C72.7182 36.4431 67.3011 30 60.6428 30H41.0754C34.4171 30 29 36.4431 29 44.4364C29 48.4361 30.4179 52.225 32.9925 55.1064C36.4724 59.0007 38.6342 66.6125 38.6342 74.9704C38.6342 83.3282 36.4724 90.94 32.9925 94.8343C30.4179 97.7146 29 101.504 29 105.578ZM40.8827 74.9704C40.8827 66.0828 38.5019 57.8973 34.6691 53.6078C32.4952 51.1754 31.2485 47.8322 31.2485 44.3623C31.2485 37.6826 35.6566 32.2485 41.0754 32.2485H60.6428C66.0616 32.2485 70.4697 37.6826 70.4697 44.3623C70.4697 47.7702 69.2076 51.1298 67.0074 53.5792C63.1592 57.8622 60.7691 66.0586 60.7691 74.9704C60.7691 83.8821 63.1592 92.0785 67.0069 96.3615C69.2076 98.8109 70.4697 102.171 70.4697 105.578C70.4697 112.258 66.0616 117.692 60.6428 117.692H41.0754C35.6566 117.692 31.2485 112.258 31.2485 105.504C31.2485 102.108 32.4952 98.7648 34.6691 96.3329C38.5019 92.0434 40.8827 83.8579 40.8827 74.9704Z" fill="#782835"/>
<path d="M101.171 60.8245C100.55 60.8245 100.047 61.3279 100.047 61.9487V88.7602C100.047 89.3811 100.55 89.8845 101.171 89.8845C101.792 89.8845 102.295 89.3811 102.295 88.7602V61.9487C102.295 61.3279 101.792 60.8245 101.171 60.8245Z" fill="#782835"/>
<path d="M93.1106 60.8245C92.4897 60.8245 91.9863 61.3279 91.9863 61.9487V88.7602C91.9863 89.3811 92.4897 89.8845 93.1106 89.8845C93.7315 89.8845 94.2348 89.3811 94.2348 88.7602V61.9487C94.2348 61.3279 93.7315 60.8245 93.1106 60.8245Z" fill="#782835"/>
<path d="M119 44.3623C119 36.4431 113.583 30 106.925 30H87.3571C80.6988 30 75.2817 36.4431 75.2817 44.4364C75.2817 48.4361 76.6997 52.225 79.2743 55.1064C81.0173 57.057 82.4293 59.94 83.405 63.3818L80.7954 63.8035C77.6005 64.3195 75.2817 67.0616 75.2817 70.3235V79.6535C75.2817 82.9148 77.6005 85.6569 80.7949 86.1734L83.3951 86.5934C82.4199 90.0199 81.0115 92.8902 79.2743 94.8343C76.6997 97.7146 75.2817 101.504 75.2817 105.578C75.2817 113.498 80.6988 119.941 87.3571 119.941H106.925C113.583 119.941 119 113.498 119 105.578C119 101.564 117.566 97.7569 114.961 94.8584C113.216 92.9157 111.801 90.0405 110.822 86.6039L113.487 86.1734C116.681 85.6569 119 82.9148 119 79.6535V70.3235C119 67.0616 116.681 64.3195 113.487 63.8035L110.813 63.3714C111.792 59.9198 113.21 57.0314 114.961 55.0823C117.566 52.1838 119 48.3768 119 44.3623ZM81.1539 83.9534C79.0542 83.6142 77.5303 81.8059 77.5303 79.6535V70.3235C77.5303 68.1705 79.0542 66.3622 81.1539 66.0235L83.9449 65.5725C84.5719 68.4661 84.9164 71.657 84.9164 74.9704C84.9164 78.2971 84.569 81.5002 83.9372 84.403L81.1539 83.9534ZM113.128 66.0235C115.228 66.3622 116.751 68.1705 116.751 70.3235V79.6535C116.751 81.8059 115.228 83.6142 113.128 83.9534L110.28 84.4135C109.647 81.5087 109.299 78.3022 109.299 74.9704C109.299 71.6519 109.644 68.4576 110.272 65.562L113.128 66.0235ZM107.051 74.9704C107.051 83.8821 109.441 92.0785 113.289 96.3615C115.489 98.8104 116.751 102.17 116.751 105.578C116.751 112.258 112.343 117.692 106.925 117.692H87.3571C81.9384 117.692 77.5303 112.258 77.5303 105.504C77.5303 102.108 78.7769 98.7648 80.9508 96.3329C84.7841 92.0428 86.9786 83.8554 87.165 74.9704C87.3801 64.7115 83.1231 56.039 80.9508 53.6078C78.7769 51.1754 77.5303 47.8322 77.5303 44.3623C77.5303 37.6826 81.9384 32.2485 87.3571 32.2485H106.925C112.343 32.2485 116.751 37.6826 116.751 44.3623C116.751 47.7708 115.489 51.1304 113.289 53.5792C109.441 57.8622 107.051 66.0586 107.051 74.9704Z" fill="#782835"/>
<line x1="28.7802" y1="15.3745" x2="121.78" y2="131.374" stroke="#3F413C" stroke-width="2"/>
</svg>
