<svg width="1512" height="179" viewBox="0 0 1512 179" fill="none" xmlns="http://www.w3.org/2000/svg">
<path d="M374.047 66.397C501.234 66.3971 543.438 9 636.805 9C730.172 9 735.953 121.603 899.563 96.1909C1063.17 70.7785 1110 179 1110 179H0C0 179 82.5113 44.9783 174.722 44.9783C266.933 44.9783 246.859 66.397 374.047 66.397Z" fill="#FFF9F5" fill-opacity="0.6"/>
<path d="M509.513 106.139C682.763 106.139 740.25 69 867.431 69C994.613 69 1002.49 141.861 1225.35 125.418C1448.21 108.974 1512 179 1512 179H0C0 179 112.394 92.2801 238 92.2801C363.606 92.2801 336.263 106.139 509.513 106.139Z" fill="#FFF9F5"/>
<path d="M327.6 134.984C528.412 134.984 605.981 -83.9193 811.519 35.8029C1017.06 155.525 1191.88 92.7294 1313.16 92.7294C1434.43 92.7294 1512 179 1512 179H0V35.8031C0 35.8031 126.787 134.984 327.6 134.984Z" fill="#FFF9F5" fill-opacity="0.26"/>
</svg>
