<svg width="41" height="94" viewBox="0 0 41 94" fill="none" xmlns="http://www.w3.org/2000/svg">
<path d="M40.0709 74.844L36.5239 54.276V36.156C36.5239 30.592 31.7589 25.719 26.3149 25.719H14.0629C8.80288 25.719 4.51888 30.403 4.51888 36.156V54.072L0.0428832 75.308C-0.0811168 75.892 0.0668825 76.515 0.446883 76.98C0.826882 77.443 1.39488 77.724 1.99888 77.724H8.51888V91.724C8.51888 92.824 9.41488 93.724 10.5189 93.724H30.5189C31.6229 93.724 32.5189 92.824 32.5189 91.724V77.724H38.1919C38.2079 77.724 38.2189 77.724 38.2309 77.724C39.3469 77.736 40.2719 76.839 40.2719 75.724C40.2759 75.408 40.2029 75.107 40.0709 74.844Z" fill="#B94A75"/>
<path d="M32.1958 12.28C32.1958 18.907 26.8228 24.28 20.1958 24.28C13.5688 24.28 8.1958 18.907 8.1958 12.28C8.1958 5.65303 13.5688 0.280029 20.1958 0.280029C26.8228 0.280029 32.1958 5.65303 32.1958 12.28Z" fill="#B94A75"/>
</svg>
