<svg width="41" height="94" viewBox="0 0 41 94" fill="none" xmlns="http://www.w3.org/2000/svg">
<path d="M30.6536 93.44H10.6536C9.54965 93.44 8.65365 92.54 8.65365 91.44V77.44H2.13365C1.52965 77.44 0.961648 77.168 0.581648 76.696C0.201648 76.232 0.0536488 75.612 0.177649 75.024L4.65365 53.784V35.868C4.65365 30.116 8.93365 25.436 14.1976 25.436H26.4496C31.8856 25.436 36.6576 30.316 36.6576 35.868V53.988L40.2097 74.56C40.3337 74.812 40.4057 75.124 40.4057 75.436C40.4057 76.556 39.5857 77.548 38.3657 77.436C38.3536 77.436 38.3416 77.436 38.3256 77.436H32.6536V91.436C32.6536 92.54 31.7536 93.44 30.6536 93.44ZM12.6536 89.44H28.6536V75.44C28.6536 74.34 29.5536 73.44 30.6536 73.44H35.9496L32.6816 54.34L32.6536 35.88C32.6536 32.572 29.6376 29.444 26.4456 29.444H14.1896C10.8736 29.444 8.64565 32.772 8.64565 35.88V54C8.64565 54.132 8.63365 54.272 8.60165 54.416L4.59365 73.44H10.6496C11.7536 73.44 12.6496 74.344 12.6496 75.44L12.6536 89.44Z" fill="#B94A75"/>
<path d="M20.3213 24C13.7053 24 8.32129 18.616 8.32129 12C8.32129 5.392 13.7053 0 20.3213 0C26.9333 0 32.3213 5.392 32.3213 12C32.3213 18.62 26.9333 24 20.3213 24ZM20.3213 4C15.9093 4 12.3213 7.588 12.3213 12C12.3213 16.416 15.9093 20 20.3213 20C24.7333 20 28.3213 16.416 28.3213 12C28.3213 7.592 24.7293 4 20.3213 4Z" fill="#B94A75"/>
</svg>
