<svg width="346" height="45" viewBox="0 0 346 45" fill="none" xmlns="http://www.w3.org/2000/svg">
<path d="M345.702 0.882812V9.29266H339.227V42.9061H328.321V9.29266H321.872V0.882812H345.702Z" fill="#782835"/>
<path d="M295.14 0.882812H302.859C308.005 0.882812 311.484 1.08181 313.298 1.47981C315.128 1.8778 316.613 2.89875 317.753 4.54265C318.91 6.16925 319.489 8.77353 319.489 12.3555C319.489 15.626 319.083 17.8236 318.271 18.9484C317.459 20.0732 315.862 20.748 313.479 20.973C315.638 21.5094 317.088 22.2276 317.831 23.1274C318.573 24.0272 319.031 24.8578 319.204 25.6192C319.394 26.3633 319.489 28.4311 319.489 31.8227V42.9061H309.36V28.9416C309.36 26.692 309.179 25.2991 308.816 24.7626C308.471 24.2262 307.547 23.958 306.045 23.958V42.9061H295.14V0.882812ZM306.045 8.07271V17.417C307.271 17.417 308.126 17.2526 308.609 16.9238C309.11 16.5777 309.36 15.4789 309.36 13.6274V11.3173C309.36 9.98483 309.119 9.11097 308.635 8.69566C308.169 8.28036 307.305 8.07271 306.045 8.07271Z" fill="#782835"/>
<path d="M287.032 0.882812L293.275 42.9061H282.111L281.567 35.3528H277.655L277.008 42.9061H265.714L271.257 0.882812H287.032ZM281.256 27.9033C280.703 23.1447 280.151 17.2699 279.598 10.279C278.493 18.3082 277.802 24.1829 277.526 27.9033H281.256Z" fill="#782835"/>
<path d="M263.797 0.882812V42.9061H252.892V25.2558H249.628V42.9061H238.723V0.882812H249.628V15.9115H252.892V0.882812H263.797Z" fill="#782835"/>
<path d="M234.811 19.2077H223.906V11.888C223.906 9.75958 223.785 8.4358 223.543 7.91668C223.319 7.38025 222.809 7.11203 222.015 7.11203C221.117 7.11203 220.547 7.43216 220.305 8.07241C220.064 8.71267 219.943 10.097 219.943 12.2254V31.7446C219.943 33.7865 220.064 35.1189 220.305 35.7419C220.547 36.3648 221.091 36.6763 221.937 36.6763C222.749 36.6763 223.276 36.3648 223.517 35.7419C223.776 35.1189 223.906 33.6567 223.906 31.3552V26.0861H234.811V27.7213C234.811 32.0647 234.5 35.1449 233.879 36.9618C233.274 38.7787 231.919 40.3707 229.812 41.7378C227.722 43.1048 225.141 43.7883 222.067 43.7883C218.872 43.7883 216.239 43.2086 214.166 42.0492C212.094 40.8899 210.721 39.2892 210.048 37.2473C209.374 35.1881 209.038 32.0993 209.038 27.9809V15.7036C209.038 12.6753 209.141 10.4085 209.348 8.90302C209.556 7.38025 210.169 5.91804 211.188 4.5164C212.224 3.11476 213.648 2.01594 215.462 1.21995C217.292 0.406649 219.39 0 221.756 0C224.968 0 227.619 0.622952 229.708 1.86885C231.798 3.11476 233.171 4.67214 233.827 6.54099C234.483 8.39254 234.811 11.2823 234.811 15.2104V19.2077Z" fill="#782835"/>
<path d="M197.795 0.882812L192.951 42.9061H179.326C178.083 36.4516 176.986 29.1146 176.037 20.8951C175.605 24.4079 174.595 31.7449 173.006 42.9061H159.459L154.589 0.882812H165.183L166.297 15.5481L167.437 29.6943C167.834 22.3746 168.836 12.7708 170.442 0.882812H181.787C181.943 2.11141 182.34 6.73164 182.979 14.7435L184.17 30.7066C184.775 20.549 185.785 10.6078 187.201 0.882812H197.795Z" fill="#782835"/>
<path d="M119.284 0.882812V34.4962H125.915V42.9061H108.379V0.882812H119.284Z" fill="#782835"/>
<path d="M87.2422 0.882812H105.711V9.29266H98.1474V17.2612H104.882V25.2558H98.1474V42.9061H87.2422V0.882812Z" fill="#782835"/>
<path d="M55.7954 0.882812H73.9794V9.29266H66.7006V17.2612H73.5131V25.2558H66.7006V34.4962H74.7047V42.9061H55.7954V0.882812Z" fill="#782835"/>
<path d="M51.392 0.882812V42.9061H40.4869V25.2558H37.2231V42.9061H26.3179V0.882812H37.2231V15.9115H40.4869V0.882812H51.392Z" fill="#782835"/>
<path d="M23.8308 0.882812V9.29266H17.3551V42.9061H6.44987V9.29266H0V0.882812H23.8308Z" fill="#782835"/>
<path d="M137.657 12.473C139.157 8.50966 140.574 5.04487 141.515 3.06189L141.854 3.07439C142.818 5.04456 144.205 8.4978 145.657 12.4628C147.197 16.6728 148.792 21.4091 150 25.4549C150.604 27.4785 151.108 29.3198 151.46 30.8312C151.82 32.3713 152 33.4845 152 34.0952C152 39.3818 147.369 43.7891 141.5 43.7891C135.631 43.7891 131 39.3818 131 34.0952C131 33.4923 131.19 32.3853 131.571 30.844C131.944 29.3336 132.478 27.4929 133.115 25.4691C134.388 21.4231 136.062 16.6858 137.657 12.473Z" fill="#B94A75" stroke="#333531" stroke-width="2"/>
<path d="M150.725 28.251C151.606 31.2482 150.751 34.9817 148.867 38.016C146.966 41.0771 144.242 43.0878 141.696 43.0878C136.082 43.0878 131.656 38.8721 131.656 33.8218C131.656 32.5341 132.004 30.4294 132.635 28.1134C133.261 25.811 134.143 23.3894 135.162 21.4715C135.672 20.512 136.2 19.7077 136.728 19.1124C137.265 18.5066 137.737 18.1884 138.119 18.0758C138.444 17.9803 138.777 18.0071 139.191 18.3003C139.648 18.6249 140.204 19.2836 140.802 20.4802C141.668 22.2151 142.696 23.2464 143.828 23.8755C144.858 24.4473 145.92 24.6479 146.784 24.8113C146.84 24.8219 146.895 24.8323 146.95 24.8427C147.892 25.0225 148.572 25.183 149.152 25.6011C149.702 25.9973 150.274 26.7162 150.725 28.251Z" fill="#782835" stroke="#333531" stroke-width="2"/>
<path d="M133.413 38.6186C131.574 36.1516 130.807 33.3548 131.576 31.1921L131.693 31.1921L133.826 31.1921L141.039 31.1921H141.039C146.725 31.1921 149.688 30.9652 151.207 30.7513C153.045 36.8444 147.968 43.1636 141.039 43.1636C138.356 43.1636 135.4 41.2836 133.413 38.6186Z" fill="#333531" stroke="#333531" stroke-width="2"/>
</svg>
