<svg width="200" height="200" viewBox="0 0 200 200" fill="none" xmlns="http://www.w3.org/2000/svg">
<path d="M9.98439 189.91C11.0056 190.931 12.282 191.441 13.5585 191.441C14.835 191.441 16.1114 190.931 17.1326 189.91L56.4477 150.595C58.49 148.552 58.49 145.489 56.4477 143.446C54.4053 141.404 51.3418 141.404 49.2995 143.446L9.98439 182.761C7.94205 184.548 7.94205 187.867 9.98439 189.91Z" fill="#B94A75"/>
<path d="M20.1956 153.658L39.8531 134C41.8955 131.958 41.8955 128.894 39.8531 126.852C37.8108 124.81 34.7473 124.81 32.7049 126.852L13.0474 146.51C11.005 148.552 11.005 151.615 13.0474 153.658C14.0686 154.679 15.345 155.19 16.6215 155.19C17.8979 155.19 19.1744 154.679 20.1956 153.658Z" fill="#B94A75"/>
<path d="M3.34664 132.469C3.85723 132.724 4.62311 132.724 5.13369 132.724C6.66545 132.724 8.1972 131.959 9.21838 130.682C9.47367 130.427 27.5995 105.408 43.6829 114.088L85.5509 155.956C94.4862 172.04 69.2122 190.165 68.9569 190.421C67.1698 191.697 66.404 194.25 67.1698 196.292C67.9357 198.335 69.7228 199.611 72.0204 199.611C72.2757 199.611 72.2757 199.611 72.531 199.611C96.5285 197.058 114.654 188.634 125.887 174.082C138.397 157.998 139.162 139.617 138.652 132.469C167.5 111.025 182.307 85.4953 189.966 64.8166C202.22 32.6497 199.922 5.84392 199.667 4.82275C199.411 2.26983 197.624 0.482776 195.072 0.227483C194.05 0.227483 167.245 -2.32544 134.822 9.67332C114.144 17.3321 88.6144 32.3944 67.1698 60.9872C60.0216 60.7319 41.6406 61.2425 25.5571 73.7518C11.0054 84.9847 2.58076 103.11 0.0278367 127.108C-0.227456 129.661 1.3043 131.703 3.34664 132.469ZM117.973 167.955C111.08 176.635 100.868 183.017 87.8485 186.591C94.4862 178.677 100.358 167.444 96.5285 155.701C108.527 150.85 118.994 145.489 128.44 139.617C127.93 147.276 125.632 158.254 117.973 167.955ZM189.71 10.1839C189.71 18.098 189.2 35.7132 182.307 56.1366L143.758 17.3321C164.181 10.6945 181.796 9.92861 189.71 10.1839ZM73.5521 69.6671C73.8074 69.4118 74.0627 69.1565 74.0627 68.9012C89.3803 47.2014 109.293 31.3732 133.291 21.4168L178.477 66.6036C168.521 90.6011 152.438 110.259 130.993 125.832C130.738 126.087 130.482 126.342 130.227 126.342C118.739 134.511 105.719 141.404 91.1674 147.021L52.8734 108.727C58.4899 94.1752 65.3828 81.1553 73.5521 69.6671ZM31.6841 81.9212C41.3853 74.2624 52.6181 71.9648 60.0216 71.4542C54.1499 80.9 48.5335 91.367 43.9382 103.366C32.1947 99.5364 21.2171 105.408 13.0478 112.046C16.8772 99.0258 23.0042 88.8141 31.6841 81.9212Z" fill="#3E403B"/>
<path d="M73.0411 160.04C70.9988 157.998 67.9353 157.998 65.8929 160.04L46.2354 179.698C44.193 181.74 44.193 184.803 46.2354 186.846C47.2565 187.867 48.533 188.378 49.8095 188.378C51.0859 188.378 52.3624 187.867 53.3836 186.846L73.0411 167.188C75.0835 165.401 75.0835 162.082 73.0411 160.04Z" fill="#B94A75"/>
<path d="M124.866 100.813C131.504 100.813 138.141 98.2598 143.247 93.1539C153.459 82.9422 153.459 66.6035 143.247 56.6471C133.035 46.4354 116.697 46.4354 106.74 56.6471C96.5286 66.8588 96.5286 83.1975 106.74 93.1539C111.591 98.2598 118.229 100.813 124.866 100.813ZM113.889 63.7953C116.952 60.7318 121.037 59.2 124.866 59.2C128.696 59.2 132.78 60.7318 135.844 63.7953C138.907 66.8588 140.439 70.6882 140.439 74.7729C140.439 78.8575 138.907 82.9422 135.844 85.7504C129.717 91.8775 119.76 91.8775 113.633 85.7504C107.762 79.8787 107.762 69.9223 113.889 63.7953Z" fill="#3E403B"/>
</svg>
